PathFileType	4	(X/Y/Z)	Kaydara																																																																																																																									
DataRate	CameraRate	NumFrames	NumMarkers	Units	OrigDataRate	OrigDataStartFrame	OrigNumFrames																																																																																																																					
30	30	4	41	mm	30	283	321																																																																																																																					
Frame#	Time	PAIB_LFHD			PAIB_RFHD			PAIB_LBHD			PAIB_RBHD			PAIB_LFTShould			PAIB_RFTShould			PAIB_LRRShould			PAIB_RRRShould			PAIB_T10			PAIB_STRN			PAIB_TRUN			PAIB_LSHO			PAIB_LUPA			PAIB_LELB			PAIB_LFRM			PAIB_LWRA			PAIB_LWRB			PAIB_LFIN			PAIB_RSHO			PAIB_RUPA			PAIB_RELB			PAIB_RFRM			PAIB_RWRA			PAIB_RWRB			PAIB_RFIN			PAIB_LFWT			PAIB_RFWT			PAIB_LBWT			PAIB_RBWT			PAIB_LTHI			PAIB_LKNE			PAIB_LSHN			PAIB_LANK			PAIB_LHEE			PAIB_LTOE			PAIB_RTHI			PAIB_RKNE			PAIB_RSHN			PAIB_RANK			PAIB_RHEE			PAIB_RTOE		
		X1	Y1	Z1	X2	Y2	Z2	X3	Y3	Z3	X4	Y4	Z4	X5	Y5	Z5	X6	Y6	Z6	X7	Y7	Z7	X8	Y8	Z8	X9	Y9	Z9	X10	Y10	Z10	X11	Y11	Z11	X12	Y12	Z12	X13	Y13	Z13	X14	Y14	Z14	X15	Y15	Z15	X16	Y16	Z16	X17	Y17	Z17	X18	Y18	Z18	X19	Y19	Z19	X20	Y20	Z20	X21	Y21	Z21	X22	Y22	Z22	X23	Y23	Z23	X24	Y24	Z24	X25	Y25	Z25	X26	Y26	Z26	X27	Y27	Z27	X28	Y28	Z28	X29	Y29	Z29	X30	Y30	Z30	X31	Y31	Z31	X32	Y32	Z32	X33	Y33	Z33	X34	Y34	Z34	X35	Y35	Z35	X36	Y36	Z36	X37	Y37	Z37	X38	Y38	Z38	X39	Y39	Z39	X40	Y40	Z40	X41	Y41	Z41
																																																																																																																												
281	9.393	253.44145	1531.17706	2167.40952	68.54863	1544.87137	2168.58871	264.9177	1578.42758	2047.51099	62.5001	1596.28006	2064.48303	217.30324	1333.17032	2037.5354	97.05437	1327.61627	2043.50143	219.13559	1436.78268	1917.8389	65.93765	1430.86014	1937.97333	132.13164	1305.37994	1803.38776	165.48895	1257.42928	2056.20316	163.46464	1153.70216	2048.21167	340.33516	1368.10394	1967.63702	380.57495	1139.2968	1946.25122	395.76557	1054.18213	1903.84705	399.27574	937.99469	1949.28238	322.43145	832.55585	2034.59167	364.43615	808.55789	1970.72739	367.77386	774.08447	2034.06769	-30.77743	1346.78955	2012.55539	-100.62873	1179.59724	1970.72968	-124.71769	1061.76788	1960.64682	-122.39493	925.98785	2003.74664	-30.95944	836.51993	2092.27676	-107.12911	812.84599	2063.12302	-80.33946	785.93933	2127.06772	251.81118	912.258	1990.31525	15.89346	907.01721	1993.62686	194.66846	965.35835	1776.23718	49.06689	976.74423	1778.26874	242.54841	667.93037	1831.65527	267.08944	450.60059	2012.76001	248.79723	283.79818	2082.10907	237.09644	80.91989	2068.7323	173.44618	61.47193	2033.94119	248.09887	71.85856	2248.45657	8.76093	689.32877	1747.18262	16.88639	436.81248	1783.90045	86.76607	255.28944	1774.83688	83.35331	73.58853	1650.69107	152.76245	91.95398	1610.0975	79.28509	36.20998	1816.65741
282	9.427	257.86539	1529.90875	2192.21085	73.58603	1544.39133	2191.15723	270.51586	1576.75369	2072.20505	68.09239	1595.93124	2087.59109	221.8125	1330.55939	2062.77039	100.9414	1326.26892	2066.297	226.28134	1434.31259	1943.10989	72.2684	1430.03342	1960.4425	140.03633	1303.92807	1827.13867	168.56821	1255.53429	2080.54306	165.76387	1151.81007	2072.7951	346.05804	1363.7291	1994.23233	384.27216	1134.41368	1971.65649	398.8166	1049.60304	1928.70819	401.51909	932.42867	1969.83444	322.66197	823.48938	2048.8179	366.8346	802.3188	1985.34088	368.04211	764.97391	2047.12067	-26.56358	1345.58594	2032.59567	-96.49995	1179.01627	1986.76636	-120.55423	1061.33598	1974.31992	-121.74294	924.44717	2011.72318	-33.7556	829.23759	2097.66418	-109.98416	808.39111	2066.36353	-84.72672	778.31917	2129.5433	252.33553	911.07918	2017.76154	16.67439	904.739	2015.46783	200.47335	964.66141	1802.16125	54.44506	974.58931	1802.24823	245.85812	667.69501	1857.6358	268.0006	448.18687	2033.24768	245.17084	281.81978	2101.94901	237.80258	78.12927	2083.07968	176.40429	61.11659	2043.26782	232.73376	52.34431	2265.69229	13.10564	689.11949	1767.69547	18.83317	436.61476	1800.0676	87.61919	255.02087	1784.45602	82.63179	78.08857	1653.28857	152.24751	97.8503	1613.30002	78.61925	35.96789	1816.36612
283	9.46	262.6907	1529.42261	2218.18146	78.66608	1545.08789	2215.52887	276.66	1576.03638	2098.19016	74.34476	1596.73309	2112.10602	225.28704	1329.27155	2088.4314	105.36112	1326.69495	2088.95172	233.12548	1433.63419	1969.43573	78.63802	1431.36383	1984.16687	147.50719	1304.39407	1851.9426	171.57162	1255.39352	2105.82001	167.97117	1151.69556	2098.03787	351.56662	1361.4505	2022.18964	387.52911	1131.71547	1998.62854	402.2736	1047.41295	1954.60648	404.76524	929.43649	1991.59729	324.63257	817.03995	2064.48166	371.04244	798.6557	2001.3501	370.94181	759.28795	2061.95023	-22.30598	1346.98288	2053.8974	-91.46397	1181.04858	2003.77335	-115.61572	1063.87985	1988.32428	-120.75939	926.04355	2019.6402	-37.07669	824.27711	2102.27829	-113.41067	807.11205	2068.74268	-89.99422	773.10547	2130.67215	253.74392	912.90016	2044.59747	18.23245	904.26926	2038.19489	205.56623	966.63506	1827.91489	59.47306	974.49959	1826.61133	252.47158	669.9382	1880.68039	269.4047	448.68759	2057.14188	243.12176	278.81872	2118.18878	239.42823	76.45319	2093.46848	179.99136	61.37707	2049.04495	228.49493	38.86211	2274.6199	17.71349	689.11644	1790.33478	20.64197	436.77429	1821.20071	88.10465	255.73055	1796.38412	82.05456	84.9466	1656.88538	151.90687	106.30136	1618.39188	78.08038	35.24807	1816.44409
284	9.493	268.11676	1529.9823	2245.04517	82.68637	1547.99393	2242.62527	283.06479	1577.16934	2125.42755	80.82734	1599.58115	2138.19778	228.97593	1330.71808	2114.43649	109.10374	1329.76471	2113.27179	239.74882	1435.65536	1996.42242	84.77877	1435.17044	2008.853	154.41784	1307.79526	1877.09824	174.41887	1257.64183	2130.86075	170.04877	1154.01909	2122.7507	356.56734	1361.91238	2050.89203	390.52486	1131.85959	2026.07742	405.65552	1048.15559	1981.3884	409.00616	929.84711	2014.95972	329.76833	814.47388	2083.8063	376.77834	798.44444	2020.49042	377.23312	757.58911	2079.99405	-18.38201	1351.20636	2076.42822	-87.03568	1185.74173	2021.22559	-110.38326	1069.07867	2002.03629	-119.32533	930.55809	2026.88919	-40.69943	822.65823	2106.74484	-116.54788	809.79195	2070.80215	-95.60308	771.39175	2130.92422	257.25304	917.22572	2069.67377	21.9602	905.65094	2060.64499	210.26447	971.02509	1852.29126	64.22246	976.06903	1850.16205	260.88634	675.61508	1904.21036	271.45376	452.14916	2076.31104	242.82799	278.96317	2129.98856	240.32806	77.30053	2096.69495	182.6498	63.07007	2049.17786	223.96084	34.99817	2277.64755	22.49433	689.16534	1814.78836	21.51443	437.70538	1845.19989	87.94717	257.73314	1811.27899	80.18549	94.63663	1662.52258	150.25579	118.18233	1625.29007	76.92361	35.9542	1817.88132
